PathFileType	4	(X/Y/Z)	OpenSim_Sub02_CSStiffKnee_Magnet.trc
DataRate	CameraRate	NumFrames	NumMarkers	Units	OrigDataRate	OrigDataStartFrame	OrigNumFrames
100	100	13	8	m	100	3446	6891
Frame#	Time	torso_imu_offset_imu	pelvis_imu_offset_imu	tibia_r_imu_offset_imu	femur_r_imu_offset_imu	tibia_l_imu_offset_imu	femur_l_imu_offset_imu	toes_r_imu_offset_imu	toes_l_imu_offset_imu
				X1	Y1	Z1	X2	Y2	Z2	X3	Y3	Z3	X4	Y4	Z4	X5	Y5	Z5	X6	Y6	Z6	X7	Y7	Z7	X8		Y8	Z8	

3446	34.45000000	-0.95177090	-0.07325083	0.09524989	-0.59174547	0.10788071	-0.72353650	-0.51292527	-0.61182845	-0.21958015	-0.76679640	-0.33003474	0.15413557	-0.24781116	0.77933062	-0.22602265	-0.59823660	0.25681947	0.17188288	-0.63174252	-0.30132111	-0.34607518	-0.85935390	0.07101106	-0.06537737
3447	34.46000000	-0.95450535	-0.06982257	0.09795774	-0.59218159	0.10497489	-0.72897013	-0.50978764	-0.61596070	-0.22447852	-0.75869535	-0.34147959	0.15722315	-0.27450308	0.76931717	-0.21116239	-0.60648253	0.24619437	0.17011218	-0.63195819	-0.30411321	-0.33512666	-0.85511680	0.06882797	-0.10384561
3448	34.47000000	-0.95367870	-0.06618017	0.09539335	-0.58712887	0.09395029	-0.73099771	-0.49728545	-0.61888752	-0.22307468	-0.75506732	-0.34988745	0.15913805	-0.29535122	0.76310474	-0.21561091	-0.60575187	0.24911623	0.16859116	-0.63142314	-0.30348018	-0.33738235	-0.84839209	0.05937259	-0.15763346
3449	34.48000000	-0.95206225	-0.05926452	0.09933537	-0.58233511	0.08946565	-0.72389342	-0.50063674	-0.62761602	-0.22585413	-0.76007668	-0.34981886	0.15996849	-0.32444554	0.74570488	-0.22072480	-0.60813347	0.23933399	0.17884545	-0.62963719	-0.30827403	-0.34097153	-0.83989308	0.04486548	-0.20668539
3450	34.49000000	-0.95196272	-0.06078569	0.10719331	-0.59102286	0.08900359	-0.72105028	-0.49239705	-0.63309119	-0.22292316	-0.75354484	-0.35411605	0.16436935	-0.35470139	0.73773974	-0.22713010	-0.61046963	0.24361931	0.17588695	-0.63233049	-0.30483799	-0.34004514	-0.82903435	0.02589428	-0.25141371
3451	34.50000000	-0.95342752	-0.05479057	0.10942450	-0.58626033	0.08502913	-0.71927350	-0.49158610	-0.63404145	-0.23133077	-0.75344516	-0.35604873	0.16064767	-0.38846749	0.72220488	-0.23079209	-0.61135150	0.23606641	0.17862753	-0.63288760	-0.31157612	-0.33856023	-0.81554691	0.01032572	-0.30625277
3452	34.51000000	-0.95599636	-0.05430690	0.11194871	-0.59868967	0.08190472	-0.72904415	-0.48085479	-0.63547147	-0.22778420	-0.74916191	-0.36060791	0.15790455	-0.41645972	0.70010225	-0.22400205	-0.61031386	0.23559184	0.17779797	-0.62935075	-0.31277361	-0.33706203	-0.78379175	-0.01137695	-0.34503990
3453	34.52000000	-0.95025992	-0.04820325	0.10947145	-0.59424205	0.07718944	-0.72441714	-0.47737749	-0.64391279	-0.22895521	-0.75016980	-0.36419970	0.16273255	-0.45162021	0.68329504	-0.21816841	-0.61409967	0.23706141	0.17577318	-0.63532461	-0.31606290	-0.33269944	-0.76256955	-0.03123241	-0.38482251
3454	34.53000000	-0.95257792	-0.04530379	0.12018455	-0.59356963	0.07768874	-0.72879301	-0.47250934	-0.64718613	-0.23227883	-0.75104677	-0.36688048	0.16564287	-0.47201992	0.66854111	-0.20217567	-0.60855544	0.23512175	0.17640225	-0.63884473	-0.32433302	-0.33835822	-0.73605347	-0.05536909	-0.41733475
3455	34.54000000	-0.95081468	-0.04069304	0.11859355	-0.59537930	0.07103231	-0.72320029	-0.46576511	-0.64936825	-0.23048318	-0.74350433	-0.37340387	0.16862163	-0.50492303	0.65424921	-0.17165246	-0.61187323	0.23418382	0.17853274	-0.63329327	-0.32701633	-0.33340241	-0.71891533	-0.07936693	-0.44505266
3456	34.55000000	-0.95299732	-0.04051437	0.11893881	-0.59520325	0.07666355	-0.72474380	-0.46055558	-0.65491003	-0.23155413	-0.74155884	-0.37923372	0.16563258	-0.52937796	0.63715303	-0.14570973	-0.62414877	0.23133078	0.18187402	-0.64151940	-0.33085517	-0.33418637	-0.69369837	-0.10645077	-0.46291529
3457	34.56000000	-0.95042549	-0.02940556	0.11818004	-0.59511331	0.06965691	-0.72993418	-0.45664703	-0.66145212	-0.22748109	-0.74383564	-0.38266918	0.17708907	-0.55892983	0.62297826	-0.11178586	-0.62535880	0.23403964	0.18415929	-0.65145004	-0.34097141	-0.33373854	-0.67424443	-0.13763360	-0.47727276
3458	34.57000000	-0.94908171	-0.03411335	0.11569146	-0.59902977	0.06793742	-0.72841141	-0.44760783	-0.66001430	-0.22988998	-0.73228806	-0.38570127	0.18293185	-0.57876018	0.59992020	-0.08262704	-0.62658589	0.22836625	0.18217575	-0.65577765	-0.34458705	-0.33098659	-0.65521133	-0.16756460	-0.48952199
